<svg width="1172" height="345" viewBox="0 0 1172 345" fill="none" xmlns="http://www.w3.org/2000/svg">
<g clip-path="url(#clip0_80_8)">
<path d="M45.9078 91.4596C71.049 91.4596 91.4299 71.072 91.4299 45.9227C91.4299 20.7733 71.049 0.385742 45.9078 0.385742C20.7667 0.385742 0.38578 20.7733 0.38578 45.9227C0.38578 71.072 20.7667 91.4596 45.9078 91.4596Z" stroke="url(#paint0_linear_80_8)"/>
<path d="M261.945 91.4596C287.086 91.4596 307.467 71.072 307.467 45.9227C307.467 20.7733 287.086 0.385742 261.945 0.385742C236.804 0.385742 216.423 20.7733 216.423 45.9227C216.423 71.072 236.804 91.4596 261.945 91.4596Z" stroke="url(#paint1_linear_80_8)"/>
<path d="M477.982 91.4596C503.123 91.4596 523.504 71.072 523.504 45.9227C523.504 20.7733 503.123 0.385742 477.982 0.385742C452.84 0.385742 432.459 20.7733 432.459 45.9227C432.459 71.072 452.84 91.4596 477.982 91.4596Z" stroke="url(#paint2_linear_80_8)"/>
<path d="M694.018 91.4596C719.16 91.4596 739.541 71.072 739.541 45.9227C739.541 20.7733 719.16 0.385742 694.018 0.385742C668.877 0.385742 648.496 20.7733 648.496 45.9227C648.496 71.072 668.877 91.4596 694.018 91.4596Z" stroke="url(#paint3_linear_80_8)"/>
<path d="M910.055 91.4596C935.196 91.4596 955.577 71.072 955.577 45.9227C955.577 20.7733 935.196 0.385742 910.055 0.385742C884.914 0.385742 864.533 20.7733 864.533 45.9227C864.533 71.072 884.914 91.4596 910.055 91.4596Z" stroke="url(#paint4_linear_80_8)"/>
<path d="M1126.09 91.4596C1151.23 91.4596 1171.61 71.072 1171.61 45.9227C1171.61 20.7733 1151.23 0.385742 1126.09 0.385742C1100.95 0.385742 1080.57 20.7733 1080.57 45.9227C1080.57 71.072 1100.95 91.4596 1126.09 91.4596Z" stroke="url(#paint5_linear_80_8)"/>
<path d="M45.9078 307.567C71.049 307.567 91.4299 287.179 91.4299 262.03C91.4299 236.881 71.049 216.493 45.9078 216.493C20.7667 216.493 0.38578 236.881 0.38578 262.03C0.38578 287.179 20.7667 307.567 45.9078 307.567Z" stroke="url(#paint6_linear_80_8)"/>
<path d="M261.945 307.567C287.086 307.567 307.467 287.179 307.467 262.03C307.467 236.881 287.086 216.493 261.945 216.493C236.804 216.493 216.423 236.881 216.423 262.03C216.423 287.179 236.804 307.567 261.945 307.567Z" stroke="url(#paint7_linear_80_8)"/>
<path d="M477.982 307.567C503.123 307.567 523.504 287.179 523.504 262.03C523.504 236.881 503.123 216.493 477.982 216.493C452.84 216.493 432.459 236.881 432.459 262.03C432.459 287.179 452.84 307.567 477.982 307.567Z" stroke="url(#paint8_linear_80_8)"/>
<path d="M694.018 307.567C719.16 307.567 739.541 287.179 739.541 262.03C739.541 236.881 719.16 216.493 694.018 216.493C668.877 216.493 648.496 236.881 648.496 262.03C648.496 287.179 668.877 307.567 694.018 307.567Z" stroke="url(#paint9_linear_80_8)"/>
<path d="M50.7438 32.1353V60.2011H44.8118V37.7676H44.6475L38.2224 41.7966V36.5342L45.1681 32.1353H50.7438Z" fill="url(#paint10_linear_80_8)"/>
<path d="M252.259 60.2016V55.9259L262.246 46.6756C263.096 45.8534 263.808 45.1134 264.384 44.4556C264.968 43.7978 265.411 43.1537 265.713 42.5234C266.014 41.8838 266.164 41.1941 266.164 40.4541C266.164 39.6318 265.978 38.9237 265.603 38.3299C265.228 37.7269 264.717 37.2655 264.069 36.9458C263.42 36.6169 262.685 36.4524 261.863 36.4524C261.004 36.4524 260.256 36.626 259.616 36.9732C258.977 37.3203 258.483 37.8183 258.137 38.467C257.79 39.1156 257.616 39.8876 257.616 40.7829H251.985C251.985 38.9466 252.401 37.3524 253.232 36.0002C254.063 34.6481 255.228 33.602 256.726 32.862C258.223 32.122 259.949 31.752 261.904 31.752C263.914 31.752 265.662 32.1083 267.151 32.8208C268.649 33.5243 269.813 34.5019 270.645 35.7536C271.476 37.0051 271.891 38.4396 271.891 40.0566C271.891 41.1164 271.681 42.1625 271.261 43.1948C270.85 44.2272 270.115 45.3738 269.055 46.6346C267.996 47.8862 266.502 49.3891 264.576 51.1432L260.48 55.1585V55.3503H272.261V60.2016H252.259Z" fill="url(#paint11_linear_80_8)"/>
<path d="M477.895 60.5853C475.85 60.5853 474.027 60.2335 472.429 59.5301C470.84 58.8175 469.585 57.8399 468.662 56.5974C467.748 55.3458 467.279 53.9023 467.251 52.2669H473.224C473.26 52.9521 473.484 53.5551 473.895 54.0758C474.315 54.5875 474.872 54.9849 475.567 55.2681C476.261 55.5513 477.042 55.6929 477.909 55.6929C478.813 55.6929 479.613 55.533 480.306 55.2133C481.001 54.8935 481.544 54.4504 481.937 53.884C482.329 53.3175 482.526 52.6644 482.526 51.9243C482.526 51.1751 482.316 50.5128 481.896 49.9372C481.484 49.3525 480.891 48.8958 480.115 48.5668C479.348 48.2379 478.435 48.0735 477.375 48.0735H474.758V43.7156H477.375C478.27 43.7156 479.06 43.5603 479.745 43.2496C480.439 42.9391 480.978 42.5096 481.362 41.9615C481.745 41.4042 481.937 40.7555 481.937 40.0155C481.937 39.312 481.768 38.6953 481.43 38.1655C481.101 37.6264 480.636 37.2062 480.032 36.9046C479.439 36.6032 478.745 36.4524 477.951 36.4524C477.147 36.4524 476.411 36.5986 475.745 36.891C475.078 37.1742 474.544 37.5808 474.142 38.1106C473.74 38.6405 473.525 39.2618 473.498 39.9744H467.812C467.84 38.3573 468.302 36.9321 469.197 35.6987C470.092 34.4653 471.297 33.5015 472.813 32.8072C474.338 32.1037 476.06 31.752 477.978 31.752C479.914 31.752 481.608 32.1037 483.06 32.8072C484.512 33.5106 485.64 34.4608 486.444 35.6576C487.257 36.8453 487.659 38.1791 487.65 39.6592C487.659 41.2306 487.17 42.5416 486.184 43.5922C485.206 44.6429 483.933 45.3098 482.362 45.593V45.8123C484.426 46.0772 485.997 46.7944 487.074 47.9639C488.161 49.1241 488.7 50.5768 488.691 52.3217C488.7 53.9206 488.239 55.3412 487.307 56.5837C486.385 57.8262 485.111 58.8037 483.485 59.5163C481.859 60.229 479.996 60.5853 477.895 60.5853Z" fill="url(#paint12_linear_80_8)"/>
<path d="M683.137 55.2677V50.5946L694.85 32.1353H698.878V38.6035H696.494L689.11 50.2931V50.5123H705.755V55.2677H683.137ZM696.604 60.2011V53.8425L696.713 51.7732V32.1353H702.276V60.2011H696.604Z" fill="url(#paint13_linear_80_8)"/>
<path d="M909.847 60.5849C907.91 60.5849 906.182 60.2285 904.67 59.5159C903.158 58.8033 901.962 57.8212 901.082 56.5695C900.195 55.3179 899.732 53.8835 899.693 52.2665H905.449C905.511 53.3537 905.966 54.2353 906.815 54.9114C907.671 55.5875 908.674 55.9254 909.847 55.9254C910.781 55.9254 911.598 55.7199 912.308 55.3088C913.034 54.8885 913.597 54.3084 913.998 53.5683C914.407 52.8192 914.615 51.9604 914.615 50.992C914.615 50.0053 914.407 49.1373 913.982 48.3882C913.574 47.6391 913.003 47.0544 912.27 46.6341C911.537 46.2139 910.703 45.9992 909.762 45.9901C908.944 45.9901 908.142 46.159 907.363 46.4971C906.599 46.8351 906.005 47.2965 905.572 47.8811L900.295 46.9356L901.63 32.1353H918.782V36.9865H906.514L905.789 44.0166H905.958C906.452 43.3223 907.193 42.7467 908.188 42.2899C909.183 41.8332 910.294 41.6047 911.529 41.6047C913.219 41.6047 914.731 42.0022 916.05 42.797C917.377 43.5918 918.419 44.6835 919.191 46.0723C919.954 47.4518 920.333 49.0415 920.325 50.8413C920.333 52.7325 919.9 54.4135 919.013 55.8844C918.133 57.3461 916.907 58.4973 915.325 59.3378C913.751 60.1692 911.93 60.5849 909.847 60.5849Z" fill="url(#paint14_linear_80_8)"/>
<path d="M1126.4 60.5853C1124.96 60.5761 1123.57 60.334 1122.23 59.859C1120.89 59.3839 1119.7 58.6119 1118.64 57.543C1117.57 56.4741 1116.73 55.058 1116.12 53.2947C1115.51 51.5315 1115.2 49.3662 1115.2 46.799C1115.21 44.4419 1115.48 42.336 1116.01 40.4815C1116.55 38.6177 1117.31 37.0372 1118.31 35.7398C1119.31 34.4425 1120.51 33.4558 1121.91 32.7798C1123.31 32.0946 1124.87 31.752 1126.61 31.752C1128.48 31.752 1130.14 32.1174 1131.57 32.8483C1133.01 33.57 1134.15 34.5522 1135.02 35.7946C1135.9 37.0372 1136.42 38.4304 1136.61 39.9744H1130.76C1130.53 38.9968 1130.05 38.2294 1129.32 37.6721C1128.59 37.1148 1127.69 36.8362 1126.61 36.8362C1124.78 36.8362 1123.39 37.631 1122.44 39.2207C1121.5 40.8103 1121.02 42.971 1121.01 45.7027H1121.2C1121.62 44.8713 1122.18 44.1632 1122.9 43.5786C1123.62 42.9847 1124.43 42.5325 1125.35 42.2218C1126.27 41.9021 1127.24 41.7422 1128.27 41.7422C1129.93 41.7422 1131.41 42.1351 1132.7 42.9208C1134 43.6973 1135.03 44.7662 1135.78 46.1275C1136.52 47.4887 1136.89 49.0465 1136.89 50.8006C1136.89 52.7009 1136.45 54.3911 1135.57 55.8711C1134.7 57.3511 1133.46 58.5114 1131.89 59.3519C1130.31 60.1833 1128.48 60.5944 1126.4 60.5853ZM1126.38 55.9259C1127.29 55.9259 1128.11 55.7066 1128.83 55.2681C1129.55 54.8296 1130.12 54.2358 1130.53 53.4866C1130.94 52.7374 1131.15 51.8969 1131.15 50.9651C1131.15 50.0332 1130.94 49.1972 1130.53 48.4572C1130.13 47.7172 1129.56 47.1279 1128.85 46.6894C1128.14 46.2508 1127.33 46.0316 1126.42 46.0316C1125.73 46.0316 1125.1 46.1594 1124.51 46.4153C1123.94 46.6711 1123.43 47.0274 1122.99 47.4842C1122.57 47.941 1122.23 48.4709 1121.98 49.0739C1121.73 49.6677 1121.61 50.3027 1121.61 50.9787C1121.61 51.8832 1121.82 52.71 1122.23 53.4592C1122.64 54.2083 1123.21 54.8068 1123.92 55.2544C1124.64 55.7021 1125.46 55.9259 1126.38 55.9259Z" fill="url(#paint15_linear_80_8)"/>
<path d="M38.104 276.309L49.7349 253.286V253.094H36.1861V248.243H55.8724V253.163L44.2277 276.309H38.104Z" fill="url(#paint16_linear_80_8)"/>
<path d="M261.955 276.692C259.845 276.692 257.968 276.35 256.324 275.664C254.689 274.97 253.406 274.025 252.475 272.828C251.543 271.631 251.077 270.275 251.077 268.758C251.077 267.588 251.342 266.515 251.872 265.537C252.411 264.551 253.141 263.733 254.064 263.084C254.986 262.426 256.018 262.006 257.159 261.823V261.632C255.662 261.33 254.447 260.604 253.515 259.453C252.584 258.292 252.118 256.945 252.118 255.41C252.118 253.957 252.543 252.665 253.392 251.532C254.241 250.39 255.406 249.494 256.886 248.846C258.375 248.188 260.064 247.859 261.955 247.859C263.845 247.859 265.53 248.188 267.01 248.846C268.498 249.504 269.667 250.404 270.517 251.545C271.366 252.678 271.795 253.966 271.804 255.41C271.795 256.954 271.321 258.302 270.38 259.453C269.439 260.604 268.234 261.33 266.763 261.632V261.823C267.886 262.006 268.905 262.426 269.818 263.084C270.74 263.733 271.471 264.551 272.01 265.537C272.558 266.515 272.837 267.588 272.846 268.758C272.837 270.275 272.366 271.631 271.435 272.828C270.503 274.025 269.215 274.97 267.572 275.664C265.937 276.35 264.064 276.692 261.955 276.692ZM261.955 272.335C262.895 272.335 263.717 272.166 264.421 271.828C265.124 271.48 265.671 271.006 266.064 270.402C266.466 269.79 266.667 269.087 266.667 268.292C266.667 267.478 266.461 266.761 266.051 266.14C265.64 265.51 265.083 265.016 264.38 264.66C263.676 264.295 262.867 264.112 261.955 264.112C261.05 264.112 260.242 264.295 259.53 264.66C258.818 265.016 258.256 265.51 257.845 266.14C257.443 266.761 257.242 267.478 257.242 268.292C257.242 269.087 257.438 269.79 257.831 270.402C258.223 271.006 258.776 271.48 259.489 271.828C260.201 272.166 261.023 272.335 261.955 272.335ZM261.955 259.795C262.74 259.795 263.438 259.635 264.05 259.316C264.662 258.996 265.142 258.553 265.489 257.987C265.836 257.42 266.009 256.766 266.009 256.027C266.009 255.296 265.836 254.656 265.489 254.108C265.142 253.551 264.667 253.116 264.064 252.806C263.462 252.487 262.758 252.327 261.955 252.327C261.16 252.327 260.456 252.487 259.845 252.806C259.233 253.116 258.754 253.551 258.406 254.108C258.068 254.656 257.899 255.296 257.899 256.027C257.899 256.766 258.073 257.42 258.42 257.987C258.767 258.553 259.247 258.996 259.858 259.316C260.47 259.635 261.169 259.795 261.955 259.795Z" fill="url(#paint17_linear_80_8)"/>
<path d="M477.676 247.859C479.12 247.859 480.508 248.101 481.841 248.585C483.183 249.07 484.38 249.842 485.43 250.902C486.49 251.961 487.325 253.368 487.937 255.123C488.558 256.868 488.874 259.009 488.883 261.549C488.883 263.934 488.613 266.063 488.074 267.935C487.544 269.799 486.782 271.385 485.787 272.691C484.791 273.997 483.59 274.993 482.183 275.678C480.777 276.354 479.206 276.692 477.471 276.692C475.598 276.692 473.946 276.332 472.512 275.61C471.078 274.879 469.923 273.888 469.045 272.636C468.178 271.375 467.653 269.959 467.47 268.388H473.32C473.548 269.411 474.027 270.206 474.758 270.773C475.489 271.33 476.393 271.608 477.471 271.608C479.297 271.608 480.686 270.814 481.636 269.224C482.586 267.625 483.065 265.437 483.074 262.659H482.883C482.462 263.482 481.896 264.19 481.184 264.783C480.471 265.368 479.654 265.821 478.732 266.14C477.818 266.46 476.845 266.62 475.814 266.62C474.16 266.62 472.685 266.232 471.389 265.456C470.092 264.678 469.069 263.609 468.319 262.249C467.571 260.887 467.196 259.334 467.196 257.589C467.187 255.707 467.621 254.03 468.498 252.559C469.374 251.089 470.599 249.938 472.169 249.106C473.749 248.266 475.585 247.85 477.676 247.859ZM477.718 252.518C476.795 252.518 475.973 252.738 475.252 253.176C474.539 253.615 473.973 254.204 473.553 254.944C473.142 255.684 472.941 256.511 472.95 257.425C472.95 258.347 473.151 259.178 473.553 259.919C473.964 260.65 474.521 261.235 475.224 261.673C475.936 262.102 476.749 262.317 477.663 262.317C478.347 262.317 478.982 262.189 479.567 261.933C480.151 261.678 480.658 261.326 481.088 260.878C481.526 260.421 481.869 259.896 482.115 259.302C482.362 258.708 482.485 258.078 482.485 257.411C482.476 256.525 482.266 255.711 481.855 254.971C481.444 254.232 480.877 253.638 480.156 253.19C479.434 252.742 478.622 252.518 477.718 252.518Z" fill="url(#paint18_linear_80_8)"/>
<path d="M685.738 248.242V276.309H679.806V253.875H679.641L673.216 257.904V252.642L680.162 248.242H685.738ZM703.407 276.925C701.05 276.916 699.023 276.336 697.325 275.185C695.635 274.034 694.333 272.366 693.42 270.183C692.515 267.999 692.068 265.373 692.077 262.303C692.077 259.242 692.529 256.634 693.434 254.478C694.347 252.322 695.649 250.682 697.338 249.558C699.037 248.425 701.06 247.859 703.407 247.859C705.754 247.859 707.772 248.425 709.462 249.558C711.161 250.691 712.467 252.335 713.38 254.492C714.293 256.639 714.746 259.242 714.736 262.303C714.736 265.382 714.28 268.013 713.367 270.197C712.463 272.38 711.166 274.047 709.476 275.199C707.786 276.35 705.763 276.925 703.407 276.925ZM703.407 272.006C705.014 272.006 706.298 271.197 707.256 269.58C708.215 267.963 708.69 265.537 708.681 262.303C708.681 260.175 708.462 258.402 708.024 256.986C707.594 255.57 706.982 254.506 706.188 253.793C705.403 253.08 704.475 252.724 703.407 252.724C701.809 252.724 700.53 253.523 699.571 255.122C698.612 256.721 698.128 259.115 698.118 262.303C698.118 264.459 698.334 266.259 698.763 267.702C699.201 269.137 699.817 270.215 700.612 270.937C701.407 271.649 702.338 272.006 703.407 272.006Z" fill="url(#paint19_linear_80_8)"/>
<path d="M20.1789 102.16V111.141H18.3026V103.704H14.6728V111.141H12.7965V102.16H20.1789ZM21.9861 111.141V102.16H25.5283C26.2093 102.16 26.7894 102.29 27.2687 102.55C27.748 102.808 28.1133 103.166 28.3647 103.624C28.6189 104.08 28.7461 104.607 28.7461 105.203C28.7461 105.8 28.6175 106.326 28.3603 106.782C28.1032 107.238 27.7305 107.593 27.2424 107.848C26.7573 108.102 26.1699 108.229 25.4801 108.229H23.2224V106.708H25.1732C25.5386 106.708 25.8396 106.644 26.0763 106.519C26.316 106.39 26.4942 106.214 26.6112 105.988C26.731 105.76 26.7909 105.498 26.7909 105.203C26.7909 104.905 26.731 104.645 26.6112 104.422C26.4942 104.198 26.316 104.023 26.0763 103.901C25.8367 103.775 25.5327 103.712 25.1645 103.712H23.8844V111.141H21.9861ZM29.979 102.16H31.8729V107.808H31.9474L35.8272 102.16H37.4886V111.141H35.5904V105.488H35.5246L31.623 111.141H29.979V102.16ZM39.0569 111.141V102.16H40.9552V105.866H44.8086V102.16H46.7024V111.141H44.8086V107.431H40.9552V111.141H39.0569ZM55.1589 111.141H53.265V103.712H51.985C51.6196 103.712 51.3157 103.766 51.0731 103.874C50.8335 103.98 50.6537 104.134 50.5339 104.34C50.4141 104.544 50.3542 104.795 50.3542 105.094C50.3542 105.389 50.4141 105.636 50.5339 105.835C50.6537 106.034 50.8335 106.183 51.0731 106.282C51.3128 106.381 51.6138 106.431 51.9762 106.431H54.0366V107.957H51.6693C50.9825 107.957 50.3951 107.843 49.907 107.615C49.419 107.387 49.0463 107.06 48.7891 106.633C48.5319 106.203 48.4034 105.69 48.4034 105.094C48.4034 104.5 48.5291 103.984 48.7804 103.546C49.0347 103.104 49.4014 102.764 49.8807 102.524C50.3629 102.281 50.943 102.16 51.6211 102.16H55.1589V111.141ZM50.3147 107.054H52.362L50.1788 111.141H48.0833L50.3147 107.054ZM56.3765 103.725V102.16H63.7502V103.725H61.0015V111.141H59.1252V103.725H56.3765ZM64.9645 102.16H66.8583V107.808H66.9328L70.8126 102.16H72.474V111.141H70.5759V105.488H70.5101L66.6084 111.141H64.9645V102.16ZM74.0424 111.141V102.16H80.0918V103.725H75.9406V105.866H79.7809V107.431H75.9406V109.576H80.1096V111.141H74.0424ZM23.9803 125.928C23.3257 125.928 22.7426 125.815 22.2311 125.591C21.7226 125.362 21.3208 125.05 21.0256 124.652C20.7333 124.252 20.5828 123.789 20.574 123.266H22.4854C22.4971 123.485 22.5687 123.678 22.7002 123.845C22.8346 124.009 23.0129 124.136 23.235 124.227C23.4571 124.317 23.707 124.363 23.9846 124.363C24.274 124.363 24.5297 124.311 24.7519 124.209C24.9739 124.107 25.1478 123.965 25.2735 123.784C25.3992 123.603 25.462 123.393 25.462 123.157C25.462 122.917 25.3948 122.705 25.2603 122.521C25.1289 122.334 24.9389 122.187 24.6905 122.082C24.445 121.977 24.1527 121.925 23.8137 121.925H22.9764V120.53H23.8137C24.1001 120.53 24.3529 120.48 24.5721 120.381C24.7942 120.282 24.9667 120.144 25.0894 119.969C25.2121 119.79 25.2735 119.583 25.2735 119.346C25.2735 119.121 25.2194 118.923 25.1114 118.754C25.0061 118.581 24.857 118.447 24.6642 118.35C24.4742 118.254 24.2521 118.205 23.9978 118.205C23.7406 118.205 23.5053 118.252 23.292 118.346C23.0787 118.437 22.9077 118.567 22.7791 118.736C22.6505 118.906 22.5819 119.105 22.5731 119.333H20.7537C20.7625 118.815 20.9101 118.359 21.1965 117.965C21.4829 117.57 21.8687 117.261 22.3539 117.039C22.842 116.814 23.3929 116.702 24.0066 116.702C24.6262 116.702 25.1683 116.814 25.633 117.039C26.0977 117.265 26.4587 117.569 26.7158 117.951C26.9759 118.331 27.1045 118.758 27.1016 119.232C27.1045 119.734 26.9481 120.154 26.6326 120.491C26.3198 120.826 25.9121 121.04 25.4094 121.131V121.201C26.0699 121.286 26.5726 121.515 26.9175 121.889C27.2652 122.26 27.4377 122.725 27.4348 123.284C27.4377 123.796 27.2901 124.25 26.992 124.648C26.6968 125.045 26.2891 125.358 25.7689 125.586C25.2487 125.814 24.6525 125.928 23.9803 125.928ZM30.3994 125.805H28.3653L31.4646 116.825H33.9108L37.0059 125.805H34.9717L32.7228 118.877H32.6527L30.3994 125.805ZM30.2722 122.275H35.077V123.758H30.2722V122.275ZM43.5181 125.805L40.6335 121.977H39.9847V125.805H38.0865V116.825H39.9847V120.411H40.3661L43.3471 116.825H45.71L42.2073 120.99L45.8722 125.805H43.5181ZM48.3743 125.805H46.3402L49.4396 116.825H51.8858L54.9808 125.805H52.9467L50.6978 118.877H50.6276L48.3743 125.805ZM48.2472 122.275H53.0519V123.758H48.2472V122.275ZM59.3274 125.928C58.6728 125.928 58.0897 125.815 57.5782 125.591C57.0697 125.362 56.6679 125.05 56.3727 124.652C56.0804 124.252 55.9299 123.789 55.9211 123.266H57.8325C57.8442 123.485 57.9158 123.678 58.0473 123.845C58.1817 124.009 58.36 124.136 58.5821 124.227C58.8042 124.317 59.0541 124.363 59.3317 124.363C59.6211 124.363 59.8769 124.311 60.099 124.209C60.321 124.107 60.495 123.965 60.6206 123.784C60.7463 123.603 60.8091 123.393 60.8091 123.157C60.8091 122.917 60.7419 122.705 60.6074 122.521C60.476 122.334 60.286 122.187 60.0376 122.082C59.7921 121.977 59.4998 121.925 59.1608 121.925H58.3235V120.53H59.1608C59.4473 120.53 59.7 120.48 59.9192 120.381C60.1413 120.282 60.3138 120.144 60.4365 119.969C60.5592 119.79 60.6206 119.583 60.6206 119.346C60.6206 119.121 60.5666 118.923 60.4585 118.754C60.3532 118.581 60.2042 118.447 60.0113 118.35C59.8213 118.254 59.5992 118.205 59.3449 118.205C59.0877 118.205 58.8525 118.252 58.6391 118.346C58.4258 118.437 58.2548 118.567 58.1262 118.736C57.9976 118.906 57.929 119.105 57.9202 119.333H56.1008C56.1096 118.815 56.2572 118.359 56.5436 117.965C56.83 117.57 57.2158 117.261 57.701 117.039C58.1891 116.814 58.74 116.702 59.3537 116.702C59.9733 116.702 60.5154 116.814 60.9801 117.039C61.4448 117.265 61.8058 117.569 62.0629 117.951C62.323 118.331 62.4516 118.758 62.4487 119.232C62.4516 119.734 62.2952 120.154 61.9797 120.491C61.667 120.826 61.2592 121.04 60.7565 121.131V121.201C61.417 121.286 61.9197 121.515 62.2646 121.889C62.6123 122.26 62.7848 122.725 62.7819 123.284C62.7848 123.796 62.6372 124.25 62.3391 124.648C62.0439 125.045 61.6362 125.358 61.116 125.586C60.5958 125.814 59.9996 125.928 59.3274 125.928ZM65.7465 125.805H63.7124L66.8117 116.825H69.2579L72.353 125.805H70.3188L68.0699 118.877H67.9998L65.7465 125.805ZM65.6193 122.275H70.4241V123.758H65.6193V122.275Z" fill="url(#paint20_linear_80_8)"/>
<path d="M223.437 105.305H221.516C221.482 105.056 221.41 104.835 221.302 104.642C221.194 104.446 221.055 104.28 220.885 104.142C220.716 104.005 220.52 103.899 220.298 103.827C220.079 103.753 219.841 103.717 219.584 103.717C219.118 103.717 218.714 103.832 218.369 104.064C218.024 104.291 217.757 104.625 217.567 105.063C217.377 105.498 217.282 106.028 217.282 106.651C217.282 107.291 217.377 107.828 217.567 108.265C217.76 108.7 218.028 109.029 218.373 109.251C218.718 109.473 219.117 109.584 219.571 109.584C219.824 109.584 220.06 109.55 220.276 109.483C220.495 109.416 220.689 109.318 220.859 109.19C221.029 109.058 221.169 108.899 221.28 108.711C221.394 108.525 221.473 108.311 221.516 108.072L223.437 108.08C223.388 108.492 223.263 108.89 223.064 109.273C222.868 109.653 222.604 109.993 222.271 110.294C221.941 110.593 221.546 110.83 221.087 111.005C220.632 111.177 220.115 111.264 219.54 111.264C218.739 111.264 218.023 111.082 217.392 110.72C216.763 110.358 216.266 109.833 215.901 109.146C215.538 108.459 215.357 107.627 215.357 106.651C215.357 105.671 215.542 104.838 215.91 104.151C216.278 103.464 216.778 102.941 217.409 102.581C218.041 102.218 218.75 102.038 219.54 102.038C220.06 102.038 220.542 102.11 220.986 102.257C221.433 102.403 221.83 102.616 222.175 102.897C222.52 103.174 222.8 103.515 223.016 103.919C223.236 104.322 223.375 104.784 223.437 105.305ZM233.048 106.651C233.048 107.63 232.863 108.463 232.492 109.15C232.123 109.838 231.621 110.362 230.984 110.724C230.349 111.084 229.636 111.264 228.844 111.264C228.046 111.264 227.33 111.082 226.696 110.72C226.062 110.358 225.561 109.833 225.192 109.146C224.824 108.459 224.641 107.627 224.641 106.651C224.641 105.671 224.824 104.838 225.192 104.151C225.561 103.464 226.062 102.941 226.696 102.581C227.33 102.218 228.046 102.038 228.844 102.038C229.636 102.038 230.349 102.218 230.984 102.581C231.621 102.941 232.123 103.464 232.492 104.151C232.863 104.838 233.048 105.671 233.048 106.651ZM231.124 106.651C231.124 106.016 231.029 105.481 230.839 105.045C230.652 104.61 230.387 104.28 230.045 104.054C229.704 103.83 229.303 103.717 228.844 103.717C228.386 103.717 227.985 103.83 227.643 104.054C227.301 104.28 227.035 104.61 226.846 105.045C226.658 105.481 226.565 106.016 226.565 106.651C226.565 107.285 226.658 107.82 226.846 108.255C227.035 108.691 227.301 109.022 227.643 109.246C227.985 109.472 228.386 109.584 228.844 109.584C229.303 109.584 229.704 109.472 230.045 109.246C230.387 109.022 230.652 108.691 230.839 108.255C231.029 107.82 231.124 107.285 231.124 106.651ZM242.376 105.305H240.456C240.421 105.056 240.35 104.835 240.241 104.642C240.133 104.446 239.995 104.28 239.825 104.142C239.655 104.005 239.459 103.899 239.238 103.827C239.019 103.753 238.78 103.717 238.522 103.717C238.058 103.717 237.654 103.832 237.309 104.064C236.964 104.291 236.696 104.625 236.506 105.063C236.317 105.498 236.222 106.028 236.222 106.651C236.222 107.291 236.317 107.828 236.506 108.265C236.699 108.7 236.968 109.029 237.313 109.251C237.658 109.473 238.056 109.584 238.509 109.584C238.764 109.584 238.999 109.55 239.215 109.483C239.434 109.416 239.629 109.318 239.799 109.19C239.968 109.058 240.108 108.899 240.219 108.711C240.333 108.525 240.412 108.311 240.456 108.072L242.376 108.08C242.326 108.492 242.202 108.89 242.004 109.273C241.808 109.653 241.543 109.993 241.21 110.294C240.88 110.593 240.485 110.83 240.026 111.005C239.57 111.177 239.055 111.264 238.479 111.264C237.678 111.264 236.962 111.082 236.331 110.72C235.702 110.358 235.206 109.833 234.841 109.146C234.478 108.459 234.297 107.627 234.297 106.651C234.297 105.671 234.481 104.838 234.849 104.151C235.217 103.464 235.717 102.941 236.348 102.581C236.979 102.218 237.69 102.038 238.479 102.038C238.999 102.038 239.482 102.11 239.926 102.257C240.373 102.403 240.768 102.616 241.113 102.897C241.458 103.174 241.739 103.515 241.955 103.919C242.174 104.322 242.315 104.784 242.376 105.305ZM243.396 103.726V102.16H250.769V103.726H248.02V111.141H246.144V103.726H243.396ZM252.434 111.141H250.4L253.499 102.16H255.945L259.041 111.141H257.006L254.758 104.213H254.687L252.434 111.141ZM252.307 107.611H257.112V109.094H252.307V107.611ZM260.121 111.141V102.16H263.715C264.377 102.16 264.928 102.258 265.369 102.454C265.809 102.65 266.141 102.921 266.363 103.269C266.586 103.614 266.697 104.012 266.697 104.463C266.697 104.813 266.627 105.122 266.486 105.387C266.346 105.65 266.154 105.867 265.907 106.036C265.665 106.203 265.387 106.322 265.075 106.392V106.479C265.417 106.494 265.737 106.591 266.035 106.769C266.336 106.947 266.58 107.197 266.767 107.519C266.954 107.838 267.048 108.217 267.048 108.659C267.048 109.136 266.929 109.561 266.692 109.936C266.458 110.307 266.113 110.6 265.654 110.817C265.195 111.033 264.629 111.141 263.957 111.141H260.121ZM262.02 109.589H263.567C264.096 109.589 264.482 109.488 264.724 109.286C264.967 109.081 265.088 108.809 265.088 108.471C265.088 108.222 265.028 108.003 264.908 107.813C264.789 107.622 264.617 107.473 264.395 107.365C264.176 107.257 263.914 107.203 263.611 107.203H262.02V109.589ZM262.02 105.918H263.426C263.687 105.918 263.918 105.873 264.119 105.782C264.323 105.689 264.485 105.557 264.601 105.387C264.721 105.218 264.781 105.014 264.781 104.778C264.781 104.453 264.666 104.192 264.435 103.993C264.207 103.794 263.882 103.695 263.462 103.695H262.02V105.918ZM267.796 111.141V109.615L268.05 109.593C268.378 109.567 268.642 109.442 268.844 109.22C269.045 108.995 269.196 108.637 269.295 108.146C269.398 107.652 269.464 106.988 269.493 106.155L269.642 102.16H275.736V111.141H273.89V103.682H271.404L271.264 106.808C271.217 107.814 271.097 108.636 270.904 109.273C270.714 109.91 270.41 110.381 269.992 110.685C269.578 110.989 269.009 111.141 268.287 111.141H267.796ZM277.3 111.141V102.16H283.35V103.726H279.198V105.866H283.038V107.431H279.198V109.576H283.368V111.141H277.3ZM284.859 111.141V102.16H286.757V105.866H290.61V102.16H292.505V111.141H290.61V107.431H286.757V111.141H284.859ZM294.069 102.16H295.964V107.808H296.038L299.918 102.16H301.579V111.141H299.681V105.488H299.615L295.714 111.141H294.069V102.16ZM303.148 111.141V102.16H309.197V103.726H305.046V105.866H308.886V107.431H305.046V109.576H309.215V111.141H303.148ZM217.078 118.39V116.825H224.452V118.39H221.703V125.806H219.827V118.39H217.078ZM225.666 125.806V116.825H231.716V118.39H227.564V120.53H231.405V122.095H227.564V124.24H231.733V125.806H225.666ZM235.005 116.825L236.815 119.886H236.885L238.705 116.825H240.849L238.109 121.315L240.91 125.806H238.727L236.885 122.74H236.815L234.974 125.806H232.8L235.61 121.315L232.852 116.825H235.005ZM243.106 125.92C242.817 125.92 242.569 125.817 242.361 125.613C242.157 125.405 242.054 125.156 242.054 124.867C242.054 124.581 242.157 124.335 242.361 124.131C242.569 123.925 242.817 123.824 243.106 123.824C243.386 123.824 243.632 123.925 243.842 124.131C244.053 124.335 244.158 124.581 244.158 124.867C244.158 125.06 244.109 125.237 244.009 125.398C243.913 125.555 243.785 125.683 243.628 125.779C243.47 125.873 243.296 125.92 243.106 125.92ZM248.993 125.928C248.338 125.928 247.755 125.816 247.243 125.591C246.735 125.363 246.333 125.05 246.038 124.652C245.746 124.252 245.595 123.79 245.586 123.266H247.498C247.51 123.485 247.581 123.678 247.712 123.845C247.847 124.009 248.025 124.136 248.247 124.227C248.469 124.317 248.719 124.363 248.997 124.363C249.286 124.363 249.542 124.311 249.764 124.209C249.986 124.107 250.16 123.966 250.286 123.784C250.411 123.603 250.475 123.394 250.475 123.157C250.475 122.917 250.407 122.705 250.273 122.521C250.141 122.334 249.951 122.187 249.703 122.082C249.457 121.977 249.165 121.925 248.826 121.925H247.989V120.53H248.826C249.112 120.53 249.365 120.48 249.584 120.381C249.807 120.282 249.979 120.144 250.102 119.969C250.225 119.79 250.286 119.583 250.286 119.346C250.286 119.121 250.232 118.923 250.124 118.754C250.019 118.581 249.869 118.447 249.676 118.351C249.486 118.254 249.264 118.206 249.01 118.206C248.753 118.206 248.518 118.253 248.304 118.346C248.091 118.437 247.92 118.567 247.791 118.737C247.663 118.906 247.594 119.105 247.585 119.333H245.766C245.775 118.815 245.922 118.359 246.209 117.965C246.495 117.57 246.881 117.262 247.366 117.039C247.854 116.814 248.405 116.702 249.019 116.702C249.638 116.702 250.181 116.814 250.645 117.039C251.11 117.265 251.471 117.569 251.728 117.952C251.988 118.331 252.117 118.758 252.114 119.232C252.117 119.734 251.961 120.154 251.645 120.491C251.332 120.827 250.925 121.04 250.421 121.131V121.201C251.082 121.286 251.585 121.515 251.93 121.889C252.278 122.261 252.45 122.725 252.447 123.284C252.45 123.796 252.303 124.25 252.004 124.648C251.709 125.045 251.301 125.358 250.781 125.586C250.261 125.814 249.665 125.928 248.993 125.928ZM255.412 125.806H253.377L256.477 116.825H258.923L262.018 125.806H259.984L257.735 118.877H257.665L255.412 125.806ZM255.285 122.275H260.089V123.758H255.285V122.275ZM262.612 127.972V124.293H263.222C263.429 124.144 263.619 123.933 263.791 123.661C263.964 123.387 264.111 123.008 264.234 122.525C264.357 122.04 264.445 121.405 264.497 120.622L264.752 116.825H270.692V124.293H271.673V127.963H269.85V125.806H264.436V127.972H262.612ZM265.414 124.293H268.868V118.39H266.461L266.321 120.622C266.283 121.216 266.22 121.742 266.133 122.201C266.048 122.66 265.944 123.062 265.821 123.407C265.701 123.749 265.566 124.044 265.414 124.293ZM274.375 125.806H272.341L275.44 116.825H277.887L280.981 125.806H278.948L276.698 118.877H276.628L274.375 125.806ZM274.248 122.275H279.053V123.758H274.248V122.275ZM282.062 125.806V116.825H283.96V120.53H287.814V116.825H289.708V125.806H287.814V122.095H283.96V125.806H282.062ZM291.272 116.825H293.167V122.473H293.241L297.121 116.825H298.782V125.806H296.884V120.153H296.818L292.917 125.806H291.272V116.825ZM307.242 125.806H305.348V118.377H304.068C303.703 118.377 303.399 118.431 303.156 118.539C302.917 118.645 302.737 118.799 302.617 119.004C302.497 119.209 302.438 119.46 302.438 119.758C302.438 120.053 302.497 120.3 302.617 120.499C302.737 120.698 302.917 120.847 303.156 120.947C303.396 121.046 303.697 121.096 304.06 121.096H306.12V122.622H303.752C303.066 122.622 302.479 122.508 301.99 122.28C301.502 122.051 301.129 121.724 300.872 121.297C300.615 120.867 300.486 120.354 300.486 119.758C300.486 119.165 300.612 118.649 300.864 118.21C301.118 117.769 301.485 117.428 301.964 117.188C302.446 116.946 303.026 116.825 303.705 116.825H307.242V125.806ZM302.398 121.719H304.445L302.262 125.806H300.166L302.398 121.719Z" fill="url(#paint21_linear_80_8)"/>
<path d="M439.802 111.141H437.769L440.868 102.16H443.314L446.409 111.141H444.375L442.126 104.212H442.056L439.802 111.141ZM439.675 107.611H444.48V109.093H439.675V107.611ZM447.49 111.141V102.16H449.388V105.866H453.241V102.16H455.135V111.141H453.241V107.431H449.388V111.141H447.49ZM458.247 111.141H456.214L459.313 102.16H461.759L464.854 111.141H462.82L460.571 104.212H460.501L458.247 111.141ZM458.121 107.611H462.925V109.093H458.121V107.611ZM465.448 111.141V109.615L465.702 109.593C466.029 109.566 466.294 109.442 466.496 109.22C466.698 108.995 466.848 108.637 466.947 108.146C467.049 107.652 467.116 106.988 467.145 106.155L467.294 102.16H473.387V111.141H471.541V103.681H469.056L468.916 106.808C468.869 107.814 468.749 108.636 468.556 109.273C468.366 109.91 468.062 110.381 467.644 110.685C467.229 110.989 466.661 111.141 465.939 111.141H465.448ZM474.952 102.16H476.846V107.808H476.921L480.8 102.16H482.462V111.141H480.564V105.488H480.498L476.597 111.141H474.952V102.16ZM483.688 103.725V102.16H491.062V103.725H488.314V111.141H486.437V103.725H483.688ZM492.276 102.16H494.17V107.808H494.245L498.125 102.16H499.786V111.141H497.888V105.488H497.821L493.92 111.141H492.276V102.16ZM506.785 111.141L503.901 107.313H503.252V111.141H501.354V102.16H503.252V105.747H503.634L506.615 102.16H508.977L505.475 106.326L509.14 111.141H506.785ZM511.642 111.141H509.608L512.707 102.16H515.154L518.249 111.141H516.215L513.966 104.212H513.895L511.642 111.141ZM511.515 107.611H516.32V109.093H511.515V107.611Z" fill="url(#paint22_linear_80_8)"/>
<path d="M667.325 102.16V111.141H665.449V103.704H661.819V111.141H659.943V102.16H667.325ZM669.133 111.141V102.16H672.675C673.355 102.16 673.935 102.29 674.415 102.55C674.895 102.808 675.26 103.166 675.511 103.624C675.765 104.081 675.892 104.607 675.892 105.204C675.892 105.8 675.763 106.326 675.506 106.782C675.249 107.238 674.877 107.593 674.388 107.848C673.903 108.102 673.316 108.229 672.626 108.229H670.369V106.708H672.319C672.685 106.708 672.986 106.645 673.223 106.519C673.462 106.391 673.641 106.214 673.757 105.989C673.877 105.76 673.937 105.498 673.937 105.204C673.937 104.905 673.877 104.645 673.757 104.422C673.641 104.198 673.462 104.023 673.223 103.901C672.983 103.775 672.679 103.712 672.311 103.712H671.031V111.141H669.133ZM685.375 106.651C685.375 107.63 685.19 108.463 684.819 109.15C684.45 109.838 683.948 110.362 683.311 110.724C682.677 111.084 681.964 111.264 681.171 111.264C680.373 111.264 679.657 111.082 679.023 110.72C678.389 110.358 677.888 109.833 677.519 109.146C677.151 108.459 676.968 107.627 676.968 106.651C676.968 105.671 677.151 104.838 677.519 104.151C677.888 103.464 678.389 102.941 679.023 102.581C679.657 102.218 680.373 102.038 681.171 102.038C681.964 102.038 682.677 102.218 683.311 102.581C683.948 102.941 684.45 103.464 684.819 104.151C685.19 104.838 685.375 105.671 685.375 106.651ZM683.451 106.651C683.451 106.016 683.356 105.481 683.166 105.045C682.979 104.61 682.714 104.28 682.373 104.054C682.031 103.83 681.63 103.717 681.171 103.717C680.713 103.717 680.312 103.83 679.971 104.054C679.628 104.28 679.363 104.61 679.173 105.045C678.985 105.481 678.892 106.016 678.892 106.651C678.892 107.285 678.985 107.82 679.173 108.255C679.363 108.691 679.628 109.022 679.971 109.246C680.312 109.472 680.713 109.584 681.171 109.584C681.63 109.584 682.031 109.472 682.373 109.246C682.714 109.022 682.979 108.691 683.166 108.255C683.356 107.82 683.451 107.285 683.451 106.651ZM686.03 103.726V102.16H693.404V103.726H690.655V111.141H688.779V103.726H686.03ZM702.459 106.651C702.459 107.63 702.273 108.463 701.901 109.15C701.533 109.838 701.031 110.362 700.394 110.724C699.76 111.084 699.047 111.264 698.254 111.264C697.457 111.264 696.741 111.082 696.106 110.72C695.472 110.358 694.971 109.833 694.603 109.146C694.234 108.459 694.05 107.627 694.05 106.651C694.05 105.671 694.234 104.838 694.603 104.151C694.971 103.464 695.472 102.941 696.106 102.581C696.741 102.218 697.457 102.038 698.254 102.038C699.047 102.038 699.76 102.218 700.394 102.581C701.031 102.941 701.533 103.464 701.901 104.151C702.273 104.838 702.459 105.671 702.459 106.651ZM700.534 106.651C700.534 106.016 700.439 105.481 700.249 105.045C700.062 104.61 699.797 104.28 699.456 104.054C699.114 103.83 698.713 103.717 698.254 103.717C697.795 103.717 697.395 103.83 697.053 104.054C696.711 104.28 696.445 104.61 696.255 105.045C696.068 105.481 695.975 106.016 695.975 106.651C695.975 107.285 696.068 107.82 696.255 108.255C696.445 108.691 696.711 109.022 697.053 109.246C697.395 109.472 697.795 109.584 698.254 109.584C698.713 109.584 699.114 109.472 699.456 109.246C699.797 109.022 700.062 108.691 700.249 108.255C700.439 107.82 700.534 107.285 700.534 106.651ZM703.113 103.726V102.16H710.487V103.726H707.738V111.141H705.861V103.726H703.113ZM711.701 102.16H713.594V107.808H713.669L717.549 102.16H719.211V111.141H717.312V105.488H717.246L713.344 111.141H711.701V102.16ZM728.411 102.16V111.141H726.534V103.704H722.905V111.141H721.028V102.16H728.411Z" fill="url(#paint23_linear_80_8)"/>
<path d="M882.958 113.307V109.628H883.568C883.776 109.479 883.969 109.268 884.139 108.997C884.308 108.722 884.455 108.343 884.578 107.861C884.702 107.375 884.794 106.741 884.841 105.957L885.095 102.16H891.036V109.628H892.016V113.298H890.195V111.141H884.779V113.307H882.958ZM885.759 109.628H889.215V103.725H886.808L886.669 105.957C886.631 106.551 886.569 107.077 886.476 107.536C886.392 107.995 886.291 108.397 886.168 108.742C886.044 109.084 885.913 109.38 885.759 109.628ZM893.174 102.16H895.072V107.808H895.141L899.022 102.16H900.681V111.141H898.783V105.488H898.721L894.817 111.141H893.174V102.16ZM905.519 111.264C904.863 111.264 904.284 111.151 903.767 110.926C903.258 110.698 902.857 110.385 902.564 109.988C902.27 109.587 902.124 109.125 902.108 108.602H904.022C904.037 108.821 904.107 109.014 904.238 109.18C904.369 109.344 904.554 109.471 904.77 109.562C904.994 109.653 905.248 109.698 905.519 109.698C905.812 109.698 906.066 109.647 906.29 109.545C906.514 109.442 906.684 109.301 906.815 109.119C906.938 108.938 907 108.729 907 108.492C907 108.253 906.931 108.04 906.799 107.856C906.668 107.669 906.475 107.523 906.228 107.418C905.982 107.313 905.688 107.26 905.349 107.26H904.515V105.865H905.349C905.634 105.865 905.889 105.815 906.113 105.717C906.329 105.617 906.506 105.48 906.63 105.304C906.753 105.125 906.815 104.918 906.815 104.682C906.815 104.456 906.761 104.259 906.653 104.09C906.545 103.917 906.398 103.782 906.205 103.686C906.012 103.589 905.789 103.541 905.534 103.541C905.279 103.541 905.04 103.588 904.832 103.681C904.616 103.772 904.446 103.902 904.315 104.072C904.192 104.242 904.122 104.44 904.114 104.668H902.293C902.301 104.151 902.448 103.694 902.733 103.3C903.019 102.906 903.404 102.597 903.891 102.375C904.377 102.149 904.932 102.037 905.542 102.037C906.167 102.037 906.707 102.149 907.17 102.375C907.633 102.6 907.995 102.904 908.25 103.287C908.512 103.667 908.643 104.093 908.636 104.567C908.643 105.07 908.489 105.49 908.173 105.826C907.856 106.162 907.447 106.376 906.946 106.466V106.536C907.609 106.621 908.111 106.85 908.458 107.225C908.805 107.596 908.975 108.061 908.975 108.619C908.975 109.131 908.829 109.586 908.528 109.983C908.234 110.381 907.825 110.693 907.309 110.922C906.784 111.149 906.19 111.264 905.519 111.264ZM911.938 111.141H909.901L913.003 102.16H915.449L918.542 111.141H916.513L914.26 104.212H914.191L911.938 111.141ZM911.807 107.611H916.614V109.093H911.807V107.611ZM919.623 102.16H921.521V107.808H921.59L925.471 102.16H927.13V111.141H925.232V105.488H925.17L921.266 111.141H919.623V102.16ZM924.252 99.8091H925.556C925.556 100.342 925.355 100.769 924.962 101.094C924.576 101.418 924.051 101.581 923.388 101.581C922.717 101.581 922.192 101.418 921.806 101.094C921.413 100.769 921.22 100.342 921.22 99.8091H922.516C922.508 100.011 922.578 100.192 922.709 100.353C922.84 100.514 923.064 100.594 923.388 100.594C923.697 100.594 923.92 100.515 924.051 100.357C924.183 100.2 924.252 100.017 924.252 99.8091ZM928.704 111.141V102.16H930.602V105.865H934.452V102.16H936.35V111.141H934.452V107.431H930.602V111.141H928.704Z" fill="url(#paint24_linear_80_8)"/>
<path d="M1092.54 112.685V103.704H1098.49V105.269H1094.43V107.409H1098.08V108.974H1094.43V112.685H1092.54ZM1099.76 112.685V103.704H1103.3C1103.98 103.704 1104.56 103.825 1105.04 104.067C1105.52 104.307 1105.88 104.648 1106.14 105.089C1106.39 105.528 1106.52 106.044 1106.52 106.637C1106.52 107.233 1106.39 107.747 1106.13 108.176C1105.88 108.603 1105.51 108.93 1105.01 109.159C1104.53 109.387 1103.94 109.501 1103.25 109.501H1100.89V107.975H1102.95C1103.31 107.975 1103.61 107.925 1103.85 107.826C1104.09 107.726 1104.26 107.577 1104.39 107.378C1104.5 107.179 1104.57 106.932 1104.57 106.637C1104.57 106.339 1104.5 106.088 1104.39 105.883C1104.26 105.678 1104.09 105.524 1103.85 105.418C1103.61 105.31 1103.3 105.256 1102.94 105.256H1101.66V112.685H1099.76ZM1104.6 108.598L1106.84 112.685H1104.74L1102.56 108.598H1104.6ZM1116.11 108.194C1116.11 109.174 1115.92 110.006 1115.55 110.693C1115.19 111.381 1114.68 111.906 1114.05 112.268C1113.42 112.627 1112.7 112.807 1111.91 112.807C1111.11 112.807 1110.39 112.626 1109.76 112.264C1109.13 111.901 1108.62 111.376 1108.25 110.689C1107.88 110.003 1107.71 109.171 1107.71 108.194C1107.71 107.215 1107.88 106.381 1108.25 105.694C1108.62 105.007 1109.13 104.484 1109.76 104.124C1110.39 103.762 1111.11 103.581 1111.91 103.581C1112.7 103.581 1113.42 103.762 1114.05 104.124C1114.68 104.484 1115.19 105.007 1115.55 105.694C1115.92 106.381 1116.11 107.215 1116.11 108.194ZM1114.19 108.194C1114.19 107.56 1114.09 107.025 1113.9 106.589C1113.72 106.154 1113.45 105.823 1113.11 105.598C1112.77 105.373 1112.37 105.261 1111.91 105.261C1111.45 105.261 1111.05 105.373 1110.71 105.598C1110.37 105.823 1110.1 106.154 1109.9 106.589C1109.72 107.025 1109.63 107.56 1109.63 108.194C1109.63 108.829 1109.72 109.363 1109.9 109.799C1110.1 110.235 1110.37 110.565 1110.71 110.79C1111.05 111.015 1111.45 111.128 1111.91 111.128C1112.37 111.128 1112.77 111.015 1113.11 110.79C1113.45 110.565 1113.72 110.235 1113.9 109.799C1114.09 109.363 1114.19 108.829 1114.19 108.194ZM1125.03 103.704V112.685H1123.38L1119.48 107.032H1119.42V112.685H1117.52V103.704H1119.19L1123.06 109.352H1123.14V103.704H1125.03ZM1126.25 105.269V103.704H1133.63V105.269H1130.88V112.685H1129V105.269H1126.25ZM1134.84 112.685V103.704H1140.89V105.269H1136.74V107.409H1140.58V108.974H1136.74V111.119H1140.91V112.685H1134.84ZM1149.91 103.704V112.685H1148.27L1144.36 107.032H1144.3V112.685H1142.4V103.704H1144.07L1147.94 109.352H1148.02V103.704H1149.91ZM1154.66 112.685H1151.48V103.704H1154.69C1155.59 103.704 1156.37 103.884 1157.02 104.242C1157.67 104.6 1158.17 105.112 1158.52 105.782C1158.88 106.451 1159.05 107.253 1159.05 108.185C1159.05 109.121 1158.88 109.925 1158.52 110.597C1158.17 111.27 1157.66 111.785 1157.01 112.145C1156.35 112.505 1155.57 112.685 1154.66 112.685ZM1153.37 111.058H1154.58C1155.14 111.058 1155.61 110.958 1156 110.76C1156.38 110.557 1156.67 110.246 1156.86 109.825C1157.06 109.401 1157.16 108.855 1157.16 108.185C1157.16 107.522 1157.06 106.979 1156.86 106.558C1156.67 106.137 1156.38 105.828 1156.01 105.629C1155.62 105.43 1155.15 105.331 1154.59 105.331H1153.37V111.058Z" fill="url(#paint25_linear_80_8)"/>
<path d="M1126.86 119.631V153.591" stroke="url(#paint26_linear_80_8)"/>
<path d="M1126.86 91.0737V98.02" stroke="url(#paint27_linear_80_8)"/>
<path d="M16.2116 327.248V318.267H19.8063C20.4668 318.267 21.0177 318.365 21.459 318.561C21.9004 318.757 22.232 319.028 22.4542 319.376C22.6763 319.721 22.7873 320.119 22.7873 320.57C22.7873 320.92 22.7172 321.229 22.5769 321.494C22.4366 321.757 22.2437 321.974 21.9983 322.143C21.7557 322.31 21.478 322.429 21.1653 322.499V322.586C21.5072 322.601 21.8273 322.697 22.1253 322.876C22.4264 323.054 22.6704 323.304 22.8575 323.626C23.0445 323.945 23.138 324.324 23.138 324.766C23.138 325.243 23.0197 325.668 22.7829 326.042C22.5492 326.414 22.2028 326.707 21.744 326.924C21.2851 327.14 20.7196 327.248 20.0475 327.248H16.2116ZM18.1098 325.696H19.6573C20.1863 325.696 20.572 325.595 20.8146 325.393C21.0572 325.188 21.1785 324.916 21.1785 324.578C21.1785 324.329 21.1185 324.11 20.9987 323.92C20.8789 323.729 20.7079 323.58 20.4858 323.472C20.2666 323.364 20.005 323.31 19.7011 323.31H18.1098V325.696ZM18.1098 322.025H19.517C19.7771 322.025 20.0079 321.98 20.2096 321.889C20.4142 321.796 20.575 321.664 20.6919 321.494C20.8117 321.325 20.8716 321.121 20.8716 320.885C20.8716 320.56 20.7561 320.299 20.5253 320.1C20.2973 319.901 19.9729 319.802 19.552 319.802H18.1098V322.025ZM25.9207 327.248H23.8866L26.986 318.267H29.4322L32.5272 327.248H30.4931L28.2441 320.32H28.174L25.9207 327.248ZM25.7936 323.718H30.5983V325.2H25.7936V323.718ZM41.1075 321.412H39.1874C39.1523 321.163 39.0807 320.942 38.9726 320.749C38.8644 320.553 38.7256 320.387 38.5561 320.249C38.3866 320.112 38.1908 320.006 37.9686 319.934C37.7494 319.86 37.5113 319.824 37.2541 319.824C36.7894 319.824 36.3846 319.939 36.0397 320.171C35.6949 320.398 35.4275 320.732 35.2375 321.17C35.0475 321.605 34.9525 322.135 34.9525 322.758C34.9525 323.398 35.0475 323.935 35.2375 324.372C35.4304 324.807 35.6992 325.136 36.0441 325.358C36.389 325.58 36.7879 325.691 37.2409 325.691C37.4952 325.691 37.7305 325.657 37.9467 325.59C38.1659 325.523 38.3603 325.425 38.5298 325.297C38.6993 325.165 38.8396 325.006 38.9507 324.818C39.0646 324.632 39.1436 324.418 39.1874 324.179L41.1075 324.187C41.0578 324.599 40.9336 324.997 40.7349 325.38C40.5391 325.76 40.2746 326.1 39.9414 326.401C39.6111 326.7 39.2166 326.937 38.7578 327.112C38.3018 327.284 37.786 327.371 37.2103 327.371C36.4095 327.371 35.6935 327.189 35.0622 326.827C34.4338 326.465 33.9369 325.94 33.5717 325.253C33.2093 324.566 33.028 323.734 33.028 322.758C33.028 321.778 33.2122 320.945 33.5804 320.258C33.9487 319.571 34.4484 319.048 35.0797 318.688C35.711 318.325 36.4211 318.145 37.2103 318.145C37.7305 318.145 38.2127 318.217 38.6569 318.364C39.1041 318.51 39.5001 318.723 39.8449 319.004C40.1898 319.281 40.4704 319.622 40.6867 320.025C40.9058 320.429 41.0462 320.891 41.1075 321.412ZM42.4687 327.248V318.267H44.3669V322.227H44.4852L47.7162 318.267H49.9914L46.6596 322.288L50.0309 327.248H47.76L45.3007 323.556L44.3669 324.696V327.248H42.4687ZM50.98 327.248V318.267H57.0297V319.832H52.8782V321.973H56.7185V323.538H52.8782V325.683H57.0472V327.248H50.98ZM66.0484 318.267V327.248H64.4088L60.5028 321.595H60.4371V327.248H58.5388V318.267H60.2047L64.0801 323.915H64.1589V318.267H66.0484ZM70.7994 327.248H67.6168V318.267H70.8258C71.7288 318.267 72.5062 318.447 73.158 318.806C73.8097 319.163 74.3109 319.676 74.6616 320.346C75.0153 321.015 75.192 321.816 75.192 322.748C75.192 323.685 75.0153 324.488 74.6616 325.16C74.3109 325.833 73.8068 326.349 73.1492 326.709C72.4945 327.068 71.7113 327.248 70.7994 327.248ZM69.515 325.621H70.7205C71.2817 325.621 71.7536 325.522 72.1365 325.323C72.5223 325.121 72.8116 324.81 73.0045 324.389C73.2003 323.965 73.2982 323.418 73.2982 322.748C73.2982 322.085 73.2003 321.543 73.0045 321.121C72.8116 320.701 72.5237 320.391 72.1409 320.192C71.758 319.993 71.286 319.894 70.7249 319.894H69.515V325.621Z" fill="url(#paint28_linear_80_8)"/>
<path d="M211.074 319.832V318.267H218.448V319.832H215.699V327.248H213.823V319.832H211.074ZM219.662 327.248V318.267H225.712V319.832H221.56V321.973H225.401V323.538H221.56V325.683H225.729V327.248H219.662ZM235.143 321.412H233.223C233.188 321.163 233.116 320.942 233.008 320.749C232.9 320.553 232.761 320.387 232.591 320.249C232.422 320.112 232.226 320.006 232.004 319.934C231.785 319.86 231.547 319.824 231.289 319.824C230.825 319.824 230.42 319.939 230.075 320.171C229.731 320.398 229.463 320.732 229.273 321.17C229.083 321.605 228.988 322.135 228.988 322.758C228.988 323.398 229.083 323.935 229.273 324.372C229.466 324.807 229.734 325.136 230.079 325.358C230.424 325.58 230.823 325.691 231.276 325.691C231.531 325.691 231.766 325.657 231.982 325.59C232.201 325.523 232.395 325.425 232.565 325.297C232.735 325.165 232.875 325.006 232.986 324.818C233.1 324.632 233.179 324.418 233.223 324.179L235.143 324.187C235.093 324.599 234.969 324.997 234.77 325.38C234.574 325.76 234.31 326.1 233.976 326.401C233.646 326.7 233.252 326.937 232.793 327.112C232.337 327.284 231.821 327.371 231.246 327.371C230.445 327.371 229.729 327.189 229.098 326.827C228.469 326.465 227.972 325.94 227.607 325.253C227.245 324.566 227.063 323.734 227.063 322.758C227.063 321.778 227.248 320.945 227.616 320.258C227.984 319.571 228.484 319.048 229.115 318.688C229.746 318.325 230.457 318.145 231.246 318.145C231.766 318.145 232.248 318.217 232.693 318.364C233.139 318.51 233.535 318.723 233.88 319.004C234.225 319.281 234.506 319.622 234.722 320.025C234.941 320.429 235.081 320.891 235.143 321.412ZM236.162 319.832V318.267H243.536V319.832H240.787V327.248H238.911V319.832H236.162ZM244.75 318.267H246.644V323.915H246.719L250.598 318.267H252.259V327.248H250.361V321.595H250.296L246.394 327.248H244.75V318.267ZM253.828 327.248V318.267H257.37C258.051 318.267 258.631 318.397 259.111 318.657C259.59 318.915 259.955 319.273 260.206 319.731C260.461 320.188 260.588 320.714 260.588 321.311C260.588 321.907 260.459 322.433 260.202 322.889C259.945 323.345 259.572 323.7 259.085 323.955C258.599 324.209 258.011 324.336 257.322 324.336H255.064V322.815H257.015C257.38 322.815 257.681 322.751 257.918 322.626C258.158 322.498 258.336 322.321 258.453 322.095C258.573 321.867 258.632 321.605 258.632 321.311C258.632 321.012 258.573 320.752 258.453 320.529C258.336 320.305 258.158 320.13 257.918 320.008C257.679 319.882 257.375 319.819 257.006 319.819H255.726V327.248H253.828ZM270.072 322.758C270.072 323.737 269.886 324.57 269.514 325.257C269.146 325.944 268.643 326.469 268.007 326.831C267.373 327.191 266.659 327.371 265.867 327.371C265.07 327.371 264.354 327.189 263.719 326.827C263.085 326.465 262.584 325.94 262.216 325.253C261.847 324.566 261.663 323.734 261.663 322.758C261.663 321.778 261.847 320.945 262.216 320.258C262.584 319.571 263.085 319.048 263.719 318.688C264.354 318.325 265.07 318.145 265.867 318.145C266.659 318.145 267.373 318.325 268.007 318.688C268.643 319.048 269.146 319.571 269.514 320.258C269.886 320.945 270.072 321.778 270.072 322.758ZM268.146 322.758C268.146 322.123 268.052 321.588 267.862 321.152C267.675 320.717 267.41 320.387 267.069 320.161C266.726 319.937 266.326 319.824 265.867 319.824C265.408 319.824 265.008 319.937 264.666 320.161C264.324 320.387 264.058 320.717 263.868 321.152C263.681 321.588 263.587 322.123 263.587 322.758C263.587 323.392 263.681 323.927 263.868 324.362C264.058 324.798 264.324 325.129 264.666 325.353C265.008 325.579 265.408 325.691 265.867 325.691C266.326 325.691 266.726 325.579 267.069 325.353C267.41 325.129 267.675 324.798 267.862 324.362C268.052 323.927 268.146 323.392 268.146 322.758ZM271.477 327.248V318.267H275.072C275.732 318.267 276.283 318.365 276.725 318.561C277.166 318.757 277.498 319.028 277.72 319.376C277.942 319.721 278.053 320.119 278.053 320.57C278.053 320.92 277.983 321.229 277.843 321.494C277.702 321.757 277.509 321.974 277.264 322.143C277.022 322.31 276.744 322.429 276.432 322.499V322.586C276.773 322.601 277.094 322.697 277.391 322.876C277.692 323.054 277.936 323.304 278.124 323.626C278.31 323.945 278.404 324.324 278.404 324.766C278.404 325.243 278.286 325.668 278.049 326.042C277.815 326.414 277.468 326.707 277.01 326.924C276.551 327.14 275.986 327.248 275.314 327.248H271.477ZM273.375 325.696H274.923C275.452 325.696 275.838 325.595 276.08 325.393C276.323 325.188 276.445 324.916 276.445 324.578C276.445 324.329 276.384 324.11 276.265 323.92C276.145 323.729 275.974 323.58 275.752 323.472C275.533 323.364 275.271 323.31 274.967 323.31H273.375V325.696ZM273.375 322.025H274.783C275.043 322.025 275.274 321.98 275.476 321.889C275.68 321.796 275.84 321.664 275.958 321.494C276.077 321.325 276.138 321.121 276.138 320.885C276.138 320.56 276.022 320.299 275.791 320.1C275.564 319.901 275.239 319.802 274.818 319.802H273.375V322.025ZM281.187 327.248H279.153L282.252 318.267H284.698L287.793 327.248H285.759L283.51 320.32H283.44L281.187 327.248ZM281.059 323.718H285.864V325.2H281.059V323.718ZM288.874 327.248V318.267H290.772V321.973H294.626V318.267H296.519V327.248H294.626V323.538H290.772V327.248H288.874ZM298.084 318.267H299.978V323.915H300.053L303.932 318.267H305.593V327.248H303.695V321.595H303.63L299.728 327.248H298.084V318.267ZM307.162 327.248V318.267H313.212V319.832H309.06V321.973H312.901V323.538H309.06V325.683H313.23V327.248H307.162Z" fill="url(#paint29_linear_80_8)"/>
<path d="M399.805 318.267V327.248H397.928V319.811H394.298V327.248H392.422V318.267H399.805ZM409.862 322.758C409.862 323.737 409.677 324.57 409.306 325.257C408.937 325.944 408.435 326.469 407.797 326.831C407.163 327.191 406.45 327.371 405.658 327.371C404.86 327.371 404.144 327.189 403.51 326.827C402.876 326.465 402.375 325.94 402.007 325.253C401.638 324.566 401.454 323.734 401.454 322.758C401.454 321.778 401.638 320.945 402.007 320.258C402.375 319.571 402.876 319.048 403.51 318.688C404.144 318.325 404.86 318.145 405.658 318.145C406.45 318.145 407.163 318.325 407.797 318.688C408.435 319.048 408.937 319.571 409.306 320.258C409.677 320.945 409.862 321.778 409.862 322.758ZM407.938 322.758C407.938 322.123 407.843 321.588 407.653 321.152C407.466 320.717 407.201 320.387 406.859 320.161C406.517 319.937 406.117 319.824 405.658 319.824C405.2 319.824 404.799 319.937 404.457 320.161C404.115 320.387 403.849 320.717 403.659 321.152C403.472 321.588 403.379 322.123 403.379 322.758C403.379 323.392 403.472 323.927 403.659 324.362C403.849 324.798 404.115 325.129 404.457 325.353C404.799 325.579 405.2 325.691 405.658 325.691C406.117 325.691 406.517 325.579 406.859 325.353C407.201 325.129 407.466 324.798 407.653 324.362C407.843 323.927 407.938 323.392 407.938 322.758ZM410.782 329.415V325.735H411.391C411.599 325.586 411.789 325.376 411.961 325.104C412.134 324.829 412.281 324.45 412.404 323.968C412.526 323.482 412.614 322.848 412.667 322.065L412.921 318.267H418.862V325.735H419.843V329.405H418.02V327.248H412.606V329.415H410.782ZM413.583 325.735H417.038V319.832H414.631L414.491 322.065C414.453 322.658 414.39 323.184 414.302 323.644C414.217 324.102 414.113 324.504 413.991 324.849C413.871 325.191 413.735 325.487 413.583 325.735ZM426.429 327.248L423.544 323.42H422.895V327.248H420.997V318.267H422.895V321.854H423.277L426.258 318.267H428.621L425.118 322.433L428.783 327.248H426.429ZM429.251 327.248V325.722L429.505 325.7C429.832 325.674 430.097 325.549 430.299 325.327C430.501 325.102 430.651 324.744 430.75 324.253C430.852 323.759 430.919 323.095 430.947 322.262L431.097 318.267H437.19V327.248H435.344V319.788H432.859L432.719 322.915C432.672 323.921 432.552 324.743 432.359 325.38C432.169 326.017 431.865 326.488 431.447 326.792C431.032 327.096 430.464 327.248 429.742 327.248H429.251ZM440.653 318.267V327.248H438.755V318.267H440.653ZM442.582 322.174V323.657H439.715V322.174H442.582ZM450.399 322.758C450.399 323.737 450.213 324.57 449.842 325.257C449.474 325.944 448.971 326.469 448.334 326.831C447.7 327.191 446.986 327.371 446.195 327.371C445.397 327.371 444.681 327.189 444.047 326.827C443.413 326.465 442.911 325.94 442.543 325.253C442.175 324.566 441.991 323.734 441.991 322.758C441.991 321.778 442.175 320.945 442.543 320.258C442.911 319.571 443.413 319.048 444.047 318.688C444.681 318.325 445.397 318.145 446.195 318.145C446.986 318.145 447.7 318.325 448.334 318.688C448.971 319.048 449.474 319.571 449.842 320.258C450.213 320.945 450.399 321.778 450.399 322.758ZM448.474 322.758C448.474 322.123 448.379 321.588 448.189 321.152C448.003 320.717 447.738 320.387 447.396 320.161C447.054 319.937 446.654 319.824 446.195 319.824C445.736 319.824 445.335 319.937 444.993 320.161C444.652 320.387 444.386 320.717 444.196 321.152C444.009 321.588 443.915 322.123 443.915 322.758C443.915 323.392 444.009 323.927 444.196 324.362C444.386 324.798 444.652 325.129 444.993 325.353C445.335 325.579 445.736 325.691 446.195 325.691C446.654 325.691 447.054 325.579 447.396 325.353C447.738 325.129 448.003 324.798 448.189 324.362C448.379 323.927 448.474 323.392 448.474 322.758ZM452.164 318.267H454.009V321.162C454.009 321.507 454.069 321.784 454.189 321.994C454.309 322.202 454.494 322.352 454.745 322.446C455 322.537 455.325 322.582 455.723 322.582C455.863 322.582 456.028 322.578 456.218 322.569C456.409 322.557 456.604 322.542 456.806 322.521C457.011 322.5 457.203 322.475 457.385 322.446C457.566 322.417 457.717 322.383 457.836 322.346V323.845C457.713 323.886 457.56 323.922 457.376 323.955C457.194 323.984 457.003 324.01 456.801 324.033C456.6 324.054 456.404 324.071 456.214 324.082C456.024 324.094 455.86 324.099 455.723 324.099C455.001 324.099 454.373 323.997 453.838 323.793C453.303 323.585 452.89 323.265 452.597 322.832C452.308 322.4 452.164 321.842 452.164 321.162V318.267ZM457.507 318.267H459.362V327.248H457.507V318.267ZM461.239 327.248V318.267H467.288V319.832H463.138V321.973H466.978V323.538H463.138V325.683H467.306V327.248H461.239ZM468.798 327.248V318.267H470.696V321.973H474.55V318.267H476.443V327.248H474.55V323.538H470.696V327.248H468.798ZM478.009 318.267H479.902V323.915H479.977L483.856 318.267H485.518V327.248H483.62V321.595H483.554L479.652 327.248H478.009V318.267ZM487.086 327.248V318.267H493.136V319.832H488.985V321.973H492.825V323.538H488.985V325.683H493.154V327.248H487.086ZM497.016 329.415V325.735H497.625C497.832 325.586 498.023 325.376 498.195 325.104C498.368 324.829 498.515 324.45 498.638 323.968C498.76 323.482 498.848 322.848 498.901 322.065L499.155 318.267H505.095V325.735H506.077V329.405H504.253V327.248H498.839V329.415H497.016ZM499.817 325.735H503.272V319.832H500.865L500.725 322.065C500.686 322.658 500.624 323.184 500.536 323.644C500.451 324.102 500.348 324.504 500.225 324.849C500.105 325.191 499.969 325.487 499.817 325.735ZM515.482 322.758C515.482 323.737 515.296 324.57 514.925 325.257C514.557 325.944 514.054 326.469 513.417 326.831C512.783 327.191 512.07 327.371 511.277 327.371C510.48 327.371 509.764 327.189 509.129 326.827C508.495 326.465 507.994 325.94 507.626 325.253C507.258 324.566 507.073 323.734 507.073 322.758C507.073 321.778 507.258 320.945 507.626 320.258C507.994 319.571 508.495 319.048 509.129 318.688C509.764 318.325 510.48 318.145 511.277 318.145C512.07 318.145 512.783 318.325 513.417 318.688C514.054 319.048 514.557 319.571 514.925 320.258C515.296 320.945 515.482 321.778 515.482 322.758ZM513.557 322.758C513.557 322.123 513.463 321.588 513.272 321.152C513.085 320.717 512.821 320.387 512.479 320.161C512.137 319.937 511.737 319.824 511.277 319.824C510.818 319.824 510.418 319.937 510.076 320.161C509.734 320.387 509.468 320.717 509.278 321.152C509.092 321.588 508.998 322.123 508.998 322.758C508.998 323.392 509.092 323.927 509.278 324.362C509.468 324.798 509.734 325.129 510.076 325.353C510.418 325.579 510.818 325.691 511.277 325.691C511.737 325.691 512.137 325.579 512.479 325.353C512.821 325.129 513.085 324.798 513.272 324.362C513.463 323.927 513.557 323.392 513.557 322.758ZM516.887 318.267H519.229L521.701 324.301H521.806L524.279 318.267H526.62V327.248H524.779V321.402H524.704L522.381 327.204H521.127L518.803 321.381H518.729V327.248H516.887V318.267ZM528.184 327.248V318.267H534.234V319.832H530.082V321.973H533.923V323.538H530.082V325.683H534.251V327.248H528.184ZM535.743 327.248V318.267H537.641V321.973H541.494V318.267H543.388V327.248H541.494V323.538H537.641V327.248H535.743ZM546.501 327.248H544.467L547.566 318.267H550.012L553.108 327.248H551.073L548.824 320.32H548.754L546.501 327.248ZM546.373 323.718H551.179V325.2H546.373V323.718ZM557.045 318.267H558.939V323.915H559.013L562.893 318.267H564.554V327.248H562.656V321.595H562.591L558.689 327.248H557.045V318.267ZM450.873 332.932L452.684 335.993H452.754L454.573 332.932H456.717L453.977 337.422L456.778 341.912H454.595L452.754 338.847H452.684L450.842 341.912H448.668L451.478 337.422L448.72 332.932H450.873ZM465.746 337.422C465.746 338.402 465.561 339.234 465.189 339.921C464.821 340.609 464.319 341.134 463.681 341.496C463.047 341.855 462.334 342.035 461.542 342.035C460.744 342.035 460.028 341.854 459.394 341.492C458.76 341.129 458.259 340.604 457.89 339.917C457.522 339.23 457.338 338.398 457.338 337.422C457.338 336.443 457.522 335.609 457.89 334.922C458.259 334.235 458.76 333.712 459.394 333.352C460.028 332.99 460.744 332.809 461.542 332.809C462.334 332.809 463.047 332.99 463.681 333.352C464.319 333.712 464.821 334.235 465.189 334.922C465.561 335.609 465.746 336.443 465.746 337.422ZM463.822 337.422C463.822 336.788 463.727 336.253 463.536 335.817C463.35 335.381 463.085 335.051 462.743 334.826C462.401 334.601 462.001 334.488 461.542 334.488C461.083 334.488 460.683 334.601 460.341 334.826C459.999 335.051 459.733 335.381 459.543 335.817C459.356 336.253 459.263 336.788 459.263 337.422C459.263 338.057 459.356 338.591 459.543 339.027C459.733 339.463 459.999 339.793 460.341 340.018C460.683 340.243 461.083 340.356 461.542 340.356C462.001 340.356 462.401 340.243 462.743 340.018C463.085 339.793 463.35 339.463 463.536 339.027C463.727 338.591 463.822 338.057 463.822 337.422ZM475.074 336.076H473.154C473.118 335.828 473.047 335.607 472.939 335.414C472.831 335.218 472.692 335.051 472.523 334.914C472.353 334.776 472.157 334.671 471.935 334.598C471.716 334.525 471.478 334.488 471.22 334.488C470.756 334.488 470.351 334.603 470.006 334.835C469.661 335.063 469.394 335.396 469.204 335.834C469.014 336.27 468.919 336.799 468.919 337.422C468.919 338.062 469.014 338.6 469.204 339.036C469.397 339.471 469.666 339.8 470.011 340.022C470.355 340.245 470.754 340.356 471.207 340.356C471.462 340.356 471.697 340.322 471.913 340.255C472.132 340.187 472.327 340.089 472.497 339.961C472.666 339.829 472.806 339.67 472.917 339.483C473.031 339.296 473.11 339.082 473.154 338.843L475.074 338.851C475.024 339.264 474.9 339.661 474.702 340.045C474.506 340.424 474.241 340.765 473.908 341.066C473.577 341.365 473.183 341.601 472.724 341.777C472.268 341.949 471.753 342.035 471.176 342.035C470.376 342.035 469.66 341.854 469.028 341.492C468.4 341.129 467.903 340.604 467.538 339.917C467.176 339.23 466.995 338.398 466.995 337.422C466.995 336.443 467.179 335.609 467.547 334.922C467.915 334.235 468.415 333.712 469.046 333.352C469.677 332.99 470.388 332.809 471.176 332.809C471.697 332.809 472.179 332.882 472.623 333.028C473.071 333.174 473.466 333.388 473.811 333.668C474.156 333.946 474.437 334.286 474.653 334.69C474.872 335.094 475.013 335.555 475.074 336.076ZM476.094 334.497V332.932H483.467V334.497H480.718V341.912H478.842V334.497H476.094ZM484.681 341.912V332.932H486.579V336.637H490.433V332.932H492.326V341.912H490.433V338.202H486.579V341.912H484.681ZM499.849 332.932V334.497H495.79V341.912H493.892V332.932H499.849ZM501.515 341.912H499.481L502.58 332.932H505.027L508.122 341.912H506.088L503.839 334.984H503.769L501.515 341.912ZM501.388 338.382H506.193V339.865H501.388V338.382Z" fill="url(#paint30_linear_80_8)"/>
<path d="M651.894 318.267V327.248H650.018V319.811H646.388V327.248H644.511V318.267H651.894ZM653.701 327.248V318.267H657.244C657.924 318.267 658.504 318.397 658.983 318.657C659.463 318.915 659.828 319.273 660.08 319.731C660.334 320.188 660.461 320.714 660.461 321.311C660.461 321.907 660.332 322.433 660.075 322.889C659.818 323.345 659.446 323.7 658.957 323.955C658.472 324.209 657.885 324.336 657.195 324.336H654.937V322.815H656.888C657.254 322.815 657.554 322.751 657.791 322.626C658.031 322.498 658.21 322.321 658.326 322.095C658.446 321.867 658.506 321.605 658.506 321.311C658.506 321.012 658.446 320.752 658.326 320.529C658.21 320.305 658.031 320.13 657.791 320.008C657.551 319.882 657.247 319.819 656.879 319.819H655.599V327.248H653.701ZM669.944 322.758C669.944 323.737 669.759 324.57 669.388 325.257C669.019 325.944 668.517 326.469 667.88 326.831C667.245 327.191 666.532 327.371 665.74 327.371C664.942 327.371 664.226 327.189 663.592 326.827C662.958 326.465 662.457 325.94 662.088 325.253C661.72 324.566 661.537 323.734 661.537 322.758C661.537 321.778 661.72 320.945 662.088 320.258C662.457 319.571 662.958 319.048 663.592 318.688C664.226 318.325 664.942 318.145 665.74 318.145C666.532 318.145 667.245 318.325 667.88 318.688C668.517 319.048 669.019 319.571 669.388 320.258C669.759 320.945 669.944 321.778 669.944 322.758ZM668.02 322.758C668.02 322.123 667.925 321.588 667.735 321.152C667.548 320.717 667.283 320.387 666.941 320.161C666.6 319.937 666.199 319.824 665.74 319.824C665.282 319.824 664.881 319.937 664.539 320.161C664.197 320.387 663.931 320.717 663.742 321.152C663.554 321.588 663.461 322.123 663.461 322.758C663.461 323.392 663.554 323.927 663.742 324.362C663.931 324.798 664.197 325.129 664.539 325.353C664.881 325.579 665.282 325.691 665.74 325.691C666.199 325.691 666.6 325.579 666.941 325.353C667.283 325.129 667.548 324.798 667.735 324.362C667.925 323.927 668.02 323.392 668.02 322.758ZM670.864 329.415V325.735H671.473C671.681 325.586 671.871 325.376 672.043 325.104C672.216 324.829 672.363 324.45 672.486 323.968C672.608 323.482 672.696 322.848 672.749 322.065L673.003 318.267H678.944V325.735H679.925V329.405H678.102V327.248H672.688V329.415H670.864ZM673.665 325.735H677.12V319.832H674.713L674.573 322.065C674.535 322.658 674.472 323.184 674.385 323.644C674.3 324.102 674.195 324.504 674.073 324.849C673.953 325.191 673.817 325.487 673.665 325.735ZM681.079 327.248V318.267H684.674C685.335 318.267 685.885 318.365 686.327 318.561C686.768 318.757 687.1 319.028 687.322 319.376C687.544 319.721 687.655 320.119 687.655 320.57C687.655 320.92 687.585 321.229 687.445 321.494C687.304 321.757 687.111 321.974 686.866 322.143C686.624 322.31 686.346 322.429 686.034 322.499V322.586C686.375 322.601 686.696 322.697 686.993 322.876C687.294 323.054 687.538 323.304 687.726 323.626C687.912 323.945 688.006 324.324 688.006 324.766C688.006 325.243 687.888 325.668 687.651 326.042C687.417 326.414 687.071 326.707 686.612 326.924C686.153 327.14 685.588 327.248 684.916 327.248H681.079ZM682.977 325.696H684.525C685.054 325.696 685.44 325.595 685.682 325.393C685.925 325.188 686.047 324.916 686.047 324.578C686.047 324.329 685.986 324.11 685.867 323.92C685.747 323.729 685.576 323.58 685.354 323.472C685.135 323.364 684.873 323.31 684.569 323.31H682.977V325.696ZM682.977 322.025H684.385C684.645 322.025 684.876 321.98 685.078 321.889C685.282 321.796 685.443 321.664 685.56 321.494C685.679 321.325 685.74 321.121 685.74 320.885C685.74 320.56 685.624 320.299 685.393 320.1C685.166 319.901 684.841 319.802 684.42 319.802H682.977V322.025ZM689.241 318.267H691.135V323.915H691.209L695.089 318.267H696.751V327.248H694.852V321.595H694.787L690.885 327.248H689.241V318.267ZM705.158 318.267V327.248H703.317V318.267H705.158ZM697.894 327.248L700.708 322.512L698.012 318.267H700.349L702.365 321.963H706.157L708.121 318.267H710.449L707.819 322.499L710.581 327.248H708.314L706.416 323.718H702.089L700.143 327.248H697.894ZM711.713 327.248V318.267H717.762V319.832H713.611V321.973H717.451V323.538H713.611V325.683H717.78V327.248H711.713ZM719.272 327.248V318.267H721.17V321.973H725.024V318.267H726.917V327.248H725.024V323.538H721.17V327.248H719.272ZM728.483 318.267H730.376V323.915H730.451L734.33 318.267H735.992V327.248H734.093V321.595H734.028L730.126 327.248H728.483V318.267ZM737.56 327.248V318.267H743.61V319.832H739.458V321.973H743.299V323.538H739.458V325.683H743.627V327.248H737.56Z" fill="url(#paint31_linear_80_8)"/>
<path d="M91.8157 45.9229H216.037" stroke="url(#paint32_linear_80_8)"/>
<path d="M91.8157 262.03H216.037" stroke="url(#paint33_linear_80_8)"/>
<path d="M307.853 262.03H432.074" stroke="url(#paint34_linear_80_8)"/>
<path d="M523.889 262.03H648.111" stroke="url(#paint35_linear_80_8)"/>
<path d="M307.853 45.9229H432.074" stroke="url(#paint36_linear_80_8)"/>
<path d="M523.889 45.9229H648.111" stroke="url(#paint37_linear_80_8)"/>
<path d="M739.926 45.9229H864.147" stroke="url(#paint38_linear_80_8)"/>
<path d="M955.963 45.9229H1080.18" stroke="url(#paint39_linear_80_8)"/>
<path d="M1127.25 153.977H46.2936" stroke="url(#paint40_linear_80_8)"/>
<path d="M46.6794 154.362V216.879" stroke="url(#paint41_linear_80_8)"/>
</g>
<defs>
<linearGradient id="paint0_linear_80_8" x1="2.0673e-07" y1="-0.000163858" x2="91.8456" y2="91.8155" gradientUnits="userSpaceOnUse">
<stop stop-color="#546FFF"/>
<stop offset="1" stop-color="#9D50FF"/>
</linearGradient>
<linearGradient id="paint1_linear_80_8" x1="216.037" y1="-0.000163858" x2="307.883" y2="91.8155" gradientUnits="userSpaceOnUse">
<stop stop-color="#546FFF"/>
<stop offset="1" stop-color="#9D50FF"/>
</linearGradient>
<linearGradient id="paint2_linear_80_8" x1="432.074" y1="-0.000163858" x2="523.919" y2="91.8155" gradientUnits="userSpaceOnUse">
<stop stop-color="#546FFF"/>
<stop offset="1" stop-color="#9D50FF"/>
</linearGradient>
<linearGradient id="paint3_linear_80_8" x1="648.111" y1="-0.000163858" x2="739.956" y2="91.8155" gradientUnits="userSpaceOnUse">
<stop stop-color="#546FFF"/>
<stop offset="1" stop-color="#9D50FF"/>
</linearGradient>
<linearGradient id="paint4_linear_80_8" x1="864.147" y1="-0.000163858" x2="955.993" y2="91.8155" gradientUnits="userSpaceOnUse">
<stop stop-color="#546FFF"/>
<stop offset="1" stop-color="#9D50FF"/>
</linearGradient>
<linearGradient id="paint5_linear_80_8" x1="1080.18" y1="-0.000163858" x2="1172.03" y2="91.8155" gradientUnits="userSpaceOnUse">
<stop stop-color="#546FFF"/>
<stop offset="1" stop-color="#9D50FF"/>
</linearGradient>
<linearGradient id="paint6_linear_80_8" x1="2.0673e-07" y1="216.107" x2="91.8456" y2="307.923" gradientUnits="userSpaceOnUse">
<stop stop-color="#546FFF"/>
<stop offset="1" stop-color="#9D50FF"/>
</linearGradient>
<linearGradient id="paint7_linear_80_8" x1="216.037" y1="216.107" x2="307.883" y2="307.923" gradientUnits="userSpaceOnUse">
<stop stop-color="#546FFF"/>
<stop offset="1" stop-color="#9D50FF"/>
</linearGradient>
<linearGradient id="paint8_linear_80_8" x1="432.074" y1="216.107" x2="523.919" y2="307.923" gradientUnits="userSpaceOnUse">
<stop stop-color="#546FFF"/>
<stop offset="1" stop-color="#9D50FF"/>
</linearGradient>
<linearGradient id="paint9_linear_80_8" x1="648.111" y1="216.107" x2="739.956" y2="307.923" gradientUnits="userSpaceOnUse">
<stop stop-color="#546FFF"/>
<stop offset="1" stop-color="#9D50FF"/>
</linearGradient>
<linearGradient id="paint10_linear_80_8" x1="36.2633" y1="22.3823" x2="69.2965" y2="35.9161" gradientUnits="userSpaceOnUse">
<stop stop-color="#546FFF"/>
<stop offset="1" stop-color="#9D50FF"/>
</linearGradient>
<linearGradient id="paint11_linear_80_8" x1="249.986" y1="22.3828" x2="288.714" y2="42.6929" gradientUnits="userSpaceOnUse">
<stop stop-color="#546FFF"/>
<stop offset="1" stop-color="#9D50FF"/>
</linearGradient>
<linearGradient id="paint12_linear_80_8" x1="465.251" y1="22.3828" x2="504.65" y2="43.6904" gradientUnits="userSpaceOnUse">
<stop stop-color="#546FFF"/>
<stop offset="1" stop-color="#9D50FF"/>
</linearGradient>
<linearGradient id="paint13_linear_80_8" x1="681.288" y1="22.3823" x2="721.324" y2="44.6903" gradientUnits="userSpaceOnUse">
<stop stop-color="#546FFF"/>
<stop offset="1" stop-color="#9D50FF"/>
</linearGradient>
<linearGradient id="paint14_linear_80_8" x1="897.324" y1="22.3823" x2="936.726" y2="43.6901" gradientUnits="userSpaceOnUse">
<stop stop-color="#546FFF"/>
<stop offset="1" stop-color="#9D50FF"/>
</linearGradient>
<linearGradient id="paint15_linear_80_8" x1="1113.36" y1="22.3828" x2="1153.4" y2="44.6908" gradientUnits="userSpaceOnUse">
<stop stop-color="#546FFF"/>
<stop offset="1" stop-color="#9D50FF"/>
</linearGradient>
<linearGradient id="paint16_linear_80_8" x1="34.7202" y1="238.49" x2="72.0023" y2="256.819" gradientUnits="userSpaceOnUse">
<stop stop-color="#546FFF"/>
<stop offset="1" stop-color="#9D50FF"/>
</linearGradient>
<linearGradient id="paint17_linear_80_8" x1="249.214" y1="238.49" x2="289.25" y2="260.798" gradientUnits="userSpaceOnUse">
<stop stop-color="#546FFF"/>
<stop offset="1" stop-color="#9D50FF"/>
</linearGradient>
<linearGradient id="paint18_linear_80_8" x1="465.251" y1="238.49" x2="505.287" y2="260.798" gradientUnits="userSpaceOnUse">
<stop stop-color="#546FFF"/>
<stop offset="1" stop-color="#9D50FF"/>
</linearGradient>
<linearGradient id="paint19_linear_80_8" x1="671.257" y1="238.49" x2="718.311" y2="283.986" gradientUnits="userSpaceOnUse">
<stop stop-color="#546FFF"/>
<stop offset="1" stop-color="#9D50FF"/>
</linearGradient>
<linearGradient id="paint20_linear_80_8" x1="2.31468" y1="99.5638" x2="19.9166" y2="152.352" gradientUnits="userSpaceOnUse">
<stop stop-color="#546FFF"/>
<stop offset="1" stop-color="#9D50FF"/>
</linearGradient>
<linearGradient id="paint21_linear_80_8" x1="202.149" y1="99.5639" x2="215.641" y2="154.934" gradientUnits="userSpaceOnUse">
<stop stop-color="#546FFF"/>
<stop offset="1" stop-color="#9D50FF"/>
</linearGradient>
<linearGradient id="paint22_linear_80_8" x1="437.475" y1="99.5638" x2="456.113" y2="151.538" gradientUnits="userSpaceOnUse">
<stop stop-color="#546FFF"/>
<stop offset="1" stop-color="#9D50FF"/>
</linearGradient>
<linearGradient id="paint23_linear_80_8" x1="658.912" y1="99.5639" x2="664.724" y2="127.693" gradientUnits="userSpaceOnUse">
<stop stop-color="#546FFF"/>
<stop offset="1" stop-color="#9D50FF"/>
</linearGradient>
<linearGradient id="paint24_linear_80_8" x1="882.665" y1="99.5636" x2="889.992" y2="126.932" gradientUnits="userSpaceOnUse">
<stop stop-color="#546FFF"/>
<stop offset="1" stop-color="#9D50FF"/>
</linearGradient>
<linearGradient id="paint25_linear_80_8" x1="1091.76" y1="101.107" x2="1097.75" y2="129.157" gradientUnits="userSpaceOnUse">
<stop stop-color="#546FFF"/>
<stop offset="1" stop-color="#9D50FF"/>
</linearGradient>
<linearGradient id="paint26_linear_80_8" x1="nan" y1="nan" x2="nan" y2="nan" gradientUnits="userSpaceOnUse">
<stop stop-color="#546FFF"/>
<stop offset="1" stop-color="#9D50FF"/>
</linearGradient>
<linearGradient id="paint27_linear_80_8" x1="nan" y1="nan" x2="nan" y2="nan" gradientUnits="userSpaceOnUse">
<stop stop-color="#546FFF"/>
<stop offset="1" stop-color="#9D50FF"/>
</linearGradient>
<linearGradient id="paint28_linear_80_8" x1="15.4312" y1="315.671" x2="22.1012" y2="343.395" gradientUnits="userSpaceOnUse">
<stop stop-color="#546FFF"/>
<stop offset="1" stop-color="#9D50FF"/>
</linearGradient>
<linearGradient id="paint29_linear_80_8" x1="210.636" y1="315.671" x2="214.714" y2="344.421" gradientUnits="userSpaceOnUse">
<stop stop-color="#546FFF"/>
<stop offset="1" stop-color="#9D50FF"/>
</linearGradient>
<linearGradient id="paint30_linear_80_8" x1="388.095" y1="315.671" x2="397.379" y2="372.82" gradientUnits="userSpaceOnUse">
<stop stop-color="#546FFF"/>
<stop offset="1" stop-color="#9D50FF"/>
</linearGradient>
<linearGradient id="paint31_linear_80_8" x1="643.481" y1="315.671" x2="647.649" y2="344.395" gradientUnits="userSpaceOnUse">
<stop stop-color="#546FFF"/>
<stop offset="1" stop-color="#9D50FF"/>
</linearGradient>
<linearGradient id="paint32_linear_80_8" x1="nan" y1="nan" x2="nan" y2="nan" gradientUnits="userSpaceOnUse">
<stop stop-color="#546FFF"/>
<stop offset="1" stop-color="#9D50FF"/>
</linearGradient>
<linearGradient id="paint33_linear_80_8" x1="nan" y1="nan" x2="nan" y2="nan" gradientUnits="userSpaceOnUse">
<stop stop-color="#546FFF"/>
<stop offset="1" stop-color="#9D50FF"/>
</linearGradient>
<linearGradient id="paint34_linear_80_8" x1="nan" y1="nan" x2="nan" y2="nan" gradientUnits="userSpaceOnUse">
<stop stop-color="#546FFF"/>
<stop offset="1" stop-color="#9D50FF"/>
</linearGradient>
<linearGradient id="paint35_linear_80_8" x1="nan" y1="nan" x2="nan" y2="nan" gradientUnits="userSpaceOnUse">
<stop stop-color="#546FFF"/>
<stop offset="1" stop-color="#9D50FF"/>
</linearGradient>
<linearGradient id="paint36_linear_80_8" x1="nan" y1="nan" x2="nan" y2="nan" gradientUnits="userSpaceOnUse">
<stop stop-color="#546FFF"/>
<stop offset="1" stop-color="#9D50FF"/>
</linearGradient>
<linearGradient id="paint37_linear_80_8" x1="nan" y1="nan" x2="nan" y2="nan" gradientUnits="userSpaceOnUse">
<stop stop-color="#546FFF"/>
<stop offset="1" stop-color="#9D50FF"/>
</linearGradient>
<linearGradient id="paint38_linear_80_8" x1="nan" y1="nan" x2="nan" y2="nan" gradientUnits="userSpaceOnUse">
<stop stop-color="#546FFF"/>
<stop offset="1" stop-color="#9D50FF"/>
</linearGradient>
<linearGradient id="paint39_linear_80_8" x1="nan" y1="nan" x2="nan" y2="nan" gradientUnits="userSpaceOnUse">
<stop stop-color="#546FFF"/>
<stop offset="1" stop-color="#9D50FF"/>
</linearGradient>
<linearGradient id="paint40_linear_80_8" x1="nan" y1="nan" x2="nan" y2="nan" gradientUnits="userSpaceOnUse">
<stop stop-color="#546FFF"/>
<stop offset="1" stop-color="#9D50FF"/>
</linearGradient>
<linearGradient id="paint41_linear_80_8" x1="nan" y1="nan" x2="nan" y2="nan" gradientUnits="userSpaceOnUse">
<stop stop-color="#546FFF"/>
<stop offset="1" stop-color="#9D50FF"/>
</linearGradient>
<clipPath id="clip0_80_8">
<rect width="1172" height="345" fill="white"/>
</clipPath>
</defs>
</svg>
