<svg width="51" height="51" viewBox="0 0 51 51" fill="none" xmlns="http://www.w3.org/2000/svg">
<path d="M25.5 0C39.5838 0 51 11.4162 51 25.5C51 39.5838 39.5838 51 25.5 51C11.4162 51 0 39.5838 0 25.5C0 11.4162 11.4162 0 25.5 0ZM34.2964 35.894C34.7654 34.4549 36.9628 20.1128 37.2344 17.2868C37.3165 16.4309 37.046 15.8621 36.516 15.6082C35.8752 15.3 34.9261 15.4541 33.8252 15.851C32.3152 16.3954 13.0105 24.592 11.8952 25.0665C10.8375 25.5155 9.83746 26.0056 9.83746 26.7151C9.83746 27.214 10.1335 27.4945 10.9495 27.7861C11.7987 28.0888 13.9374 28.7374 15.2002 29.0855C16.4165 29.4215 17.8012 29.1299 18.5773 28.6476C19.4 28.1365 28.8937 21.7837 29.5756 21.2271C30.2563 20.6705 30.7996 21.3834 30.243 21.9411C29.6864 22.4977 23.1695 28.8228 22.3103 29.6986C21.267 30.7619 22.0076 31.8639 22.7072 32.3052C23.5066 32.8085 29.2552 36.6646 30.121 37.2832C30.9869 37.9019 31.865 38.1824 32.6688 38.1824C33.4726 38.1824 33.8962 37.1236 34.2964 35.894Z" fill="white"/>
</svg>
