<svg width="51" height="51" viewBox="0 0 51 51" fill="none" xmlns="http://www.w3.org/2000/svg">
<path d="M25.5 0C11.4176 0 0 11.4176 0 25.5C0 39.5824 11.4176 51 25.5 51C39.5824 51 51 39.5824 51 25.5C51 11.4176 39.5824 0 25.5 0ZM39.0171 33.9299L35.0476 33.9851C35.0476 33.9851 34.1912 34.153 33.0714 33.3795C31.586 32.3595 30.1856 29.7054 29.0934 30.0496C27.9862 30.4024 28.0203 32.7909 28.0203 32.7909C28.0203 32.7909 28.0287 33.2116 27.7759 33.4857C27.5017 33.7811 26.9641 33.7514 26.9641 33.7514H25.1855C25.1855 33.7514 21.2627 34.0765 17.8054 30.4725C14.0399 26.5434 10.7121 18.7892 10.7121 18.7892C10.7121 18.7892 10.5166 18.3005 10.7249 18.0498C10.9607 17.7735 11.5961 17.765 11.5961 17.765L15.8461 17.7437C15.8461 17.7437 16.2456 17.8139 16.5346 18.0264C16.7705 18.2006 16.9044 18.5279 16.9044 18.5279C16.9044 18.5279 17.5907 20.2682 18.5024 21.845C20.2789 24.9177 21.1034 25.5914 21.7069 25.262C22.5866 24.7817 22.3231 20.9185 22.3231 20.9185C22.3231 20.9185 22.3401 19.516 21.8811 18.8913C21.5241 18.4046 20.8526 18.2601 20.5594 18.224C20.3193 18.1921 20.7103 17.6354 21.2202 17.3846C21.9853 17.0106 23.3367 16.9894 24.9326 17.0042C26.1757 17.017 26.5349 17.0935 27.0194 17.2125C28.4856 17.5674 27.9884 18.9359 27.9884 22.219C27.9884 23.2709 27.7992 24.7499 28.5557 25.2365C28.883 25.4469 29.6799 25.2684 31.6667 21.8811C32.6124 20.2746 33.32 18.3876 33.32 18.3876C33.32 18.3876 33.4751 18.0519 33.7152 17.9074C33.9617 17.7586 34.2932 17.8054 34.2932 17.8054L38.7664 17.7778C38.7664 17.7778 40.1094 17.6162 40.3283 18.2261C40.5578 18.8636 39.8267 20.3533 37.9992 22.7906C34.9987 26.7941 34.6651 26.4222 37.1577 28.7385C39.5377 30.9506 40.0286 32.0259 40.1115 32.1619C41.0954 33.8003 39.0171 33.9299 39.0171 33.9299Z" fill="white"/>
</svg>
